<?xml version="1.0" encoding="UTF-8"?>
<svg width="752pt" height="752pt" version="1.1" viewBox="0 0 752 752" xmlns="http://www.w3.org/2000/svg">
 <path d="m602.95 587.69-147.22-147.22c30.477-34.445 46.348-79.406 44.242-125.36-2.1016-45.945-22.016-89.27-55.516-120.79s-77.957-48.75-123.95-48.047c-45.988 0.69922-89.898 19.281-122.42 51.805-32.523 32.523-51.105 76.434-51.809 122.43-0.69922 45.988 16.531 90.445 48.051 123.95 31.516 33.5 74.836 53.414 120.79 55.52 45.949 2.1016 90.91-13.766 125.36-44.246l147.23 147.22c4.2344 4.0742 10.957 4.0117 15.113-0.14453s4.2188-10.879 0.14453-15.113zm-389.97-154.61c-29.188-29.188-45.582-68.773-45.582-110.05 0-41.277 16.395-80.863 45.582-110.05s68.773-45.586 110.05-45.586c41.277 0 80.863 16.398 110.05 45.586s45.582 68.773 45.582 110.05c0 41.277-16.395 80.863-45.582 110.05-29.211 29.145-68.789 45.512-110.05 45.512-41.262 0-80.84-16.367-110.05-45.512z"/>
</svg>
